<svg xmlns="http://www.w3.org/2000/svg" viewBox="0 0 3 2"><path fill="#fff" d="M0 0h3v2H0z"/><path fill="#cd2e3a" d="M1.5.42a.58.58 0 0 1 0 1.16.29.29 0 0 1 0-.58.29.29 0 0 0 0-.58z"/><path fill="#0047a0" d="M1.5 1.58a.58.58 0 0 1 0-1.16.29.29 0 0 1 0 .58.29.29 0 0 0 0 .58z"/><g stroke="#000" stroke-width=".07"><path d="m.45.32.45.22m-.4-.35.45.22m-.4-.35L1 .28m1.55 1.4-.45-.22m.4.35-.45-.22m.4.35L2 1.72m.45-1.4-.45.22m.4-.35-.45.22m.4-.35-.45.22M.45 1.68l.45-.22m-.4.35.45-.22m-.4.35L1 1.72"/></g></svg>
